<svg width="8" height="8" viewBox="0 0 8 8" fill="none" xmlns="http://www.w3.org/2000/svg">
<mask id="mask0_3296_4063" style="mask-type:alpha" maskUnits="userSpaceOnUse" x="0" y="0" width="8" height="8">
<rect x="0.5" y="0.5" width="7" height="7" fill="#D9D9D9" stroke="#3DCFB6"/>
</mask>
<g mask="url(#mask0_3296_4063)">
<path d="M3.98926 1.89648C4.5803 1.89653 5.06686 2.09811 5.47754 2.50879C5.88813 2.91947 6.08887 3.40604 6.08887 3.99707C6.08883 4.51423 5.93472 4.95088 5.62109 5.32715L5.47754 5.48535C5.06686 5.89603 4.5803 6.09664 3.98926 6.09668C3.39822 6.09668 2.91166 5.89594 2.50098 5.48535L2.35645 5.32715C2.08777 5.00471 1.93627 4.6377 1.89844 4.21387L1.88867 3.99707C1.88867 3.4798 2.04275 3.04234 2.35645 2.66602L2.50098 2.50879C2.9117 2.09807 3.39813 1.89648 3.98926 1.89648Z" fill="#3DCFB6" stroke="#3DCFB6"/>
</g>
</svg>
